<svg xmlns="http://www.w3.org/2000/svg" viewBox="0 0 593.77 625.61"><title>Fichier 1</title><path d="M0,472.72v-311C0,75.11,37.12,0,188.21,0,297.78,0,349,42.41,349,111.34v61.87H244.76V130.76c0-39.75-18.56-64.5-64.5-64.5-58.31,0-68.92,31.84-68.92,105.15V474.48c0,72.45,30,84.83,65.4,84.83,41.51,0,68-22.95,68-73.31V443.58H349v67.13c0,65.4-34.46,114.9-163.46,114.9C45.94,625.61,0,569.06,0,472.72Zm429.45-128.1h-38v-38h38V213c0-56.55,43.27-77.77,82.16-77.77,45,0,82.16,24.75,82.16,66.29V213H553.12c0-13.27-6.19-19.46-17.66-19.46A19.06,19.06,0,0,0,516,213V306.6h38v38H516V612.33H429.45Z"/></svg>